<svg id="boundary" xmlns="http://www.w3.org/2000/svg" viewBox="0 0 989.52 1037"><defs><style>.cls-1,.cls-2{fill:none;stroke-miterlimit:10;}.cls-1{stroke:#ef3d32;stroke-width:13px;}.cls-2{stroke:#ed1c24;stroke-width:10px;}</style></defs><path class="cls-1" d="M342.27,1001.25" transform="translate(-17.24 6.5)"/><path class="cls-1" d="M512,1001.25" transform="translate(-17.24 6.5)"/><path class="cls-1" d="M551.71,1024H678a23.29,23.29,0,0,0,23.29-23.29V863.93A34.73,34.73,0,0,1,709,842.11l268.61-332.5A14.65,14.65,0,0,0,975.38,489l-6.52-5.21a16.41,16.41,0,0,1-2.05-23.67l26.62-30.18a27.29,27.29,0,0,0-3-39L857.69,280.42a24.58,24.58,0,0,0-33.84,2.29l-48.08,52.45a9,9,0,0,1-11.72,1.34l-5.63-3.84a15.28,15.28,0,0,0-20.67,3.19l-22.2,28.35c-6.94,8.86-21.17,4-21.17-7.3V190.13a122.46,122.46,0,0,1,22.73-71.08L731.24,99.2a40.19,40.19,0,0,0,7.44-24.42V74.2a73.07,73.07,0,0,0-26-53.95L707.63,16A67.8,67.8,0,0,0,663.92,0H360.08a67.8,67.8,0,0,0-43.71,16l-5.08,4.28a73.07,73.07,0,0,0-26,54v.58a40.19,40.19,0,0,0,7.44,24.42l14.13,19.85a122.46,122.46,0,0,1,22.73,71.08V356.9c0,11.26-14.23,16.16-21.17,7.3l-22.2-28.35a15.28,15.28,0,0,0-20.67-3.19L260,336.5a9,9,0,0,1-11.72-1.34l-48.08-52.45a24.58,24.58,0,0,0-33.84-2.29L33.58,390.87a27.29,27.29,0,0,0-3,39l26.62,30.18a16.41,16.41,0,0,1-2,23.67L48.62,489a14.65,14.65,0,0,0-2.24,20.64L315,842.11a34.73,34.73,0,0,1,7.71,21.82v136.78A23.29,23.29,0,0,0,346,1024H551.71Z" transform="translate(-17.24 6.5)"/><circle class="cls-1" cx="511.86" cy="791.25" r="135.34"/><path class="cls-1" d="M524.1,415.49c5.58-2.34,10.6-3.12,20.74-3.66,12-.63,21.2-.4,32.95,0,19.1.65,23.05,1,34.17,1.22,10,.19,14.14-.28,25.63,0,19.39.48,22.78,1.75,24.4,2.44,12.57,5.36,17.85,18.06,19.53,22A48.93,48.93,0,0,1,684,468c-4.46,18.3-18.22,28-22,30.51-11.93,8.1-24,8.76-47.59,9.76-19.91.84-18.95-1.57-52.47-2.44-25.13-.66-30.43.57-39-3.66a49,49,0,0,1-25.63-31.73c-4-16.23.92-33.13,11-43.93A46.91,46.91,0,0,1,524.1,415.49Z" transform="translate(-17.24 6.5)"/><circle class="cls-2" cx="335.84" cy="534.15" r="47.9"/><circle class="cls-2" cx="543.15" cy="268.56" r="56.91"/><circle class="cls-2" cx="404.97" cy="275.21" r="28.45"/></svg>